{
  "asset": {
    "version": "2.0",
    "generator": "THREE.GLTFExporter"
  },
  "scenes": [
    {
      "nodes": [
        0
      ]
    }
  ],
  "scene": 0,
  "nodes": [
    {
      "children": [
        14
      ],
      "matrix": [
        0.01,
        0,
        0,
        0,
        0,
        0.01,
        0,
        0,
        0,
        0,
        0.01,
        0,
        0,
        0,
        0,
        1
      ]
    },
    {
      "matrix": [
        8.610003502547506e-17,
        0.642929710236256,
        0.7659251841371479,
        0,
        1,
        -2.5117174344730887e-16,
        -2.051146549233896e-16,
        0,
        -1.6384604902868312e-16,
        0.7659251841371479,
        -0.6429297102362564,
        0,
        -120.00000000000004,
        234.87719047954073,
        3.6132621451285516,
        1
      ],
      "name": "pillar 4",
      "mesh": 0
    },
    {
      "matrix": [
        1.56973319169063e-17,
        0.6429297102362561,
        0.7659251841371478,
        0,
        1,
        -2.3087115578186236e-16,
        -2.593542283265557e-16,
        0,
        -1.5248631829935309e-16,
        0.7659251841371478,
        -0.6429297102362564,
        0,
        120,
        234.87719047954073,
        3.613262145128564,
        1
      ],
      "name": "pillar 3",
      "mesh": 1
    },
    {
      "matrix": [
        2.220446049250315e-16,
        0.9999999999999997,
        -8.690635541853502e-18,
        0,
        -0.9999999999999997,
        2.2204460492503123e-16,
        3.730962340152431e-17,
        0,
        3.868142952612803e-17,
        2.8624639169814027e-16,
        1,
        0,
        -120.00000000000001,
        245.9294107820241,
        -41.575364795860416,
        1
      ],
      "name": "pillar 6",
      "mesh": 2
    },
    {
      "matrix": [
        2.0037855202095488e-16,
        0.9999999999999998,
        -8.690635541851912e-18,
        0,
        -0.9999999999999998,
        2.308711557818623e-16,
        3.7309623401524377e-17,
        0,
        3.8681429526127787e-17,
        2.862463916981411e-16,
        1,
        0,
        120,
        245.92941078202415,
        -41.57536479586042,
        1
      ],
      "name": "pillar 5",
      "mesh": 3
    },
    {
      "matrix": [
        3.579399896552299e-16,
        -1.6653345369377348e-16,
        1,
        0,
        0.9999999999999999,
        2.1871208377741527e-17,
        -1.3589538473019852e-16,
        0,
        3.36399428535163e-17,
        1,
        2.220446049250313e-16,
        0,
        119.99999999999999,
        5.0474601744551095e-15,
        1.9773129343186814e-14,
        1
      ],
      "name": "pillar 1",
      "mesh": 4
    },
    {
      "matrix": [
        2.220446049250313e-16,
        -2.220446049250313e-16,
        1,
        0,
        1,
        0,
        -2.220446049250313e-16,
        0,
        0,
        1,
        2.220446049250313e-16,
        0,
        -120,
        0,
        0,
        1
      ],
      "name": "pillar 2",
      "mesh": 5
    },
    {
      "matrix": [
        1,
        0,
        0,
        0,
        0,
        2.220446049250313e-16,
        -1,
        0,
        0,
        1,
        2.220446049250313e-16,
        0,
        0,
        220,
        0,
        1
      ],
      "name": "shelf 4",
      "mesh": 6
    },
    {
      "matrix": [
        1,
        0,
        0,
        0,
        0,
        2.220446049250313e-16,
        -1,
        0,
        0,
        1,
        2.220446049250313e-16,
        0,
        0,
        150,
        0,
        1
      ],
      "name": "shelf 3",
      "mesh": 7
    },
    {
      "matrix": [
        1,
        0,
        0,
        0,
        0,
        2.220446049250313e-16,
        -1,
        0,
        0,
        1,
        2.220446049250313e-16,
        0,
        0,
        80,
        -0.6424965450569295,
        1
      ],
      "name": "shelf 2",
      "mesh": 8
    },
    {
      "matrix": [
        1,
        0,
        0,
        0,
        0,
        2.220446049250313e-16,
        -1,
        0,
        0,
        1,
        2.220446049250313e-16,
        0,
        0,
        10,
        0,
        1
      ],
      "name": "shelf 1",
      "mesh": 9
    },
    {
      "matrix": [
        0.5883484054145521,
        0.39223227027636803,
        -0.7071067811865475,
        0,
        -0.554700196225229,
        0.8320502943378437,
        0,
        0,
        0.588348405414552,
        0.392232270276368,
        0.7071067811865476,
        0,
        0,
        0,
        0,
        1
      ],
      "name": "Directional Light",
      "extensions": {
        "KHR_lights_punctual": {
          "light": 0
        }
      }
    },
    {
      "matrix": [
        0.8955844155832944,
        0,
        -0.44489162114421643,
        0,
        -0.09175533424195861,
        0.9785010172034203,
        -0.18470711402113943,
        0,
        0.4353269038348945,
        0.2062419921642335,
        0.8763302616397843,
        0,
        407.4910066838847,
        339.4927558754075,
        826.9730880956529,
        1
      ],
      "camera": 0
    },
    {
      "matrix": [
        1,
        0,
        0,
        0,
        0,
        1,
        0,
        0,
        0,
        0,
        1,
        0,
        0,
        1,
        0,
        1
      ],
      "name": "Default Ambient Light"
    },
    {
      "name": "Scene 1",
      "children": [
        1,
        2,
        3,
        4,
        5,
        6,
        7,
        8,
        9,
        10,
        11,
        12,
        13
      ]
    }
  ],
  "bufferViews": [
    {
      "buffer": 0,
      "byteOffset": 0,
      "byteLength": 1968,
      "target": 34962,
      "byteStride": 12
    },
    {
      "buffer": 0,
      "byteOffset": 1968,
      "byteLength": 1968,
      "target": 34962,
      "byteStride": 12
    },
    {
      "buffer": 0,
      "byteOffset": 3936,
      "byteLength": 1312,
      "target": 34962,
      "byteStride": 8
    },
    {
      "buffer": 0,
      "byteOffset": 5248,
      "byteLength": 3408,
      "target": 34963
    },
    {
      "buffer": 0,
      "byteOffset": 8656,
      "byteLength": 1968,
      "target": 34962,
      "byteStride": 12
    },
    {
      "buffer": 0,
      "byteOffset": 10624,
      "byteLength": 1968,
      "target": 34962,
      "byteStride": 12
    },
    {
      "buffer": 0,
      "byteOffset": 12592,
      "byteLength": 1312,
      "target": 34962,
      "byteStride": 8
    },
    {
      "buffer": 0,
      "byteOffset": 13904,
      "byteLength": 3408,
      "target": 34963
    },
    {
      "buffer": 0,
      "byteOffset": 17312,
      "byteLength": 3072,
      "target": 34962,
      "byteStride": 12
    },
    {
      "buffer": 0,
      "byteOffset": 20384,
      "byteLength": 3072,
      "target": 34962,
      "byteStride": 12
    },
    {
      "buffer": 0,
      "byteOffset": 23456,
      "byteLength": 2048,
      "target": 34962,
      "byteStride": 8
    },
    {
      "buffer": 0,
      "byteOffset": 25504,
      "byteLength": 3024,
      "target": 34963
    },
    {
      "buffer": 0,
      "byteOffset": 28528,
      "byteLength": 3072,
      "target": 34962,
      "byteStride": 12
    },
    {
      "buffer": 0,
      "byteOffset": 31600,
      "byteLength": 3072,
      "target": 34962,
      "byteStride": 12
    },
    {
      "buffer": 0,
      "byteOffset": 34672,
      "byteLength": 2048,
      "target": 34962,
      "byteStride": 8
    },
    {
      "buffer": 0,
      "byteOffset": 36720,
      "byteLength": 3024,
      "target": 34963
    },
    {
      "buffer": 0,
      "byteOffset": 39744,
      "byteLength": 3072,
      "target": 34962,
      "byteStride": 12
    },
    {
      "buffer": 0,
      "byteOffset": 42816,
      "byteLength": 3072,
      "target": 34962,
      "byteStride": 12
    },
    {
      "buffer": 0,
      "byteOffset": 45888,
      "byteLength": 2048,
      "target": 34962,
      "byteStride": 8
    },
    {
      "buffer": 0,
      "byteOffset": 47936,
      "byteLength": 3024,
      "target": 34963
    },
    {
      "buffer": 0,
      "byteOffset": 50960,
      "byteLength": 2304,
      "target": 34962,
      "byteStride": 12
    },
    {
      "buffer": 0,
      "byteOffset": 53264,
      "byteLength": 2304,
      "target": 34962,
      "byteStride": 12
    },
    {
      "buffer": 0,
      "byteOffset": 55568,
      "byteLength": 1536,
      "target": 34962,
      "byteStride": 8
    },
    {
      "buffer": 0,
      "byteOffset": 57104,
      "byteLength": 2256,
      "target": 34963
    },
    {
      "buffer": 0,
      "byteOffset": 59360,
      "byteLength": 288,
      "target": 34962,
      "byteStride": 12
    },
    {
      "buffer": 0,
      "byteOffset": 59648,
      "byteLength": 288,
      "target": 34962,
      "byteStride": 12
    },
    {
      "buffer": 0,
      "byteOffset": 59936,
      "byteLength": 192,
      "target": 34962,
      "byteStride": 8
    },
    {
      "buffer": 0,
      "byteOffset": 60128,
      "byteLength": 144,
      "target": 34963
    },
    {
      "buffer": 0,
      "byteOffset": 60272,
      "byteLength": 288,
      "target": 34962,
      "byteStride": 12
    },
    {
      "buffer": 0,
      "byteOffset": 60560,
      "byteLength": 288,
      "target": 34962,
      "byteStride": 12
    },
    {
      "buffer": 0,
      "byteOffset": 60848,
      "byteLength": 192,
      "target": 34962,
      "byteStride": 8
    },
    {
      "buffer": 0,
      "byteOffset": 61040,
      "byteLength": 144,
      "target": 34963
    },
    {
      "buffer": 0,
      "byteOffset": 61184,
      "byteLength": 288,
      "target": 34962,
      "byteStride": 12
    },
    {
      "buffer": 0,
      "byteOffset": 61472,
      "byteLength": 288,
      "target": 34962,
      "byteStride": 12
    },
    {
      "buffer": 0,
      "byteOffset": 61760,
      "byteLength": 192,
      "target": 34962,
      "byteStride": 8
    },
    {
      "buffer": 0,
      "byteOffset": 61952,
      "byteLength": 144,
      "target": 34963
    },
    {
      "buffer": 0,
      "byteOffset": 62096,
      "byteLength": 288,
      "target": 34962,
      "byteStride": 12
    },
    {
      "buffer": 0,
      "byteOffset": 62384,
      "byteLength": 288,
      "target": 34962,
      "byteStride": 12
    },
    {
      "buffer": 0,
      "byteOffset": 62672,
      "byteLength": 192,
      "target": 34962,
      "byteStride": 8
    },
    {
      "buffer": 0,
      "byteOffset": 62864,
      "byteLength": 144,
      "target": 34963
    }
  ],
  "buffers": [
    {
      "byteLength": 63008,
      "uri": "data:application/octet-stream;base64,"
    }
  ],
  "accessors": [
    {
      "bufferView": 0,
      "componentType": 5126,
      "count": 164,
      "max": [
        5,
        5,
        20
      ],
      "min": [
        -5,
        -5,
        0
      ],
      "type": "VEC3"
    },
    {
      "bufferView": 1,
      "componentType": 5126,
      "count": 164,
      "max": [
        0.9987275004386902,
        0.9987275004386902,
        1
      ],
      "min": [
        -0.9987275004386902,
        -0.9987275004386902,
        -1
      ],
      "type": "VEC3"
    },
    {
      "bufferView": 2,
      "componentType": 5126,
      "count": 164,
      "max": [
        1,
        1
      ],
      "min": [
        0,
        0
      ],
      "type": "VEC2"
    },
    {
      "bufferView": 3,
      "componentType": 5125,
      "count": 852,
      "max": [
        163
      ],
      "min": [
        0
      ],
      "type": "SCALAR"
    },
    {
      "bufferView": 4,
      "componentType": 5126,
      "count": 164,
      "max": [
        5,
        5,
        20
      ],
      "min": [
        -5,
        -5,
        0
      ],
      "type": "VEC3"
    },
    {
      "bufferView": 5,
      "componentType": 5126,
      "count": 164,
      "max": [
        0.9987275004386902,
        0.9987275004386902,
        1
      ],
      "min": [
        -0.9987275004386902,
        -0.9987275004386902,
        -1
      ],
      "type": "VEC3"
    },
    {
      "bufferView": 6,
      "componentType": 5126,
      "count": 164,
      "max": [
        1,
        1
      ],
      "min": [
        0,
        0
      ],
      "type": "VEC2"
    },
    {
      "bufferView": 7,
      "componentType": 5125,
      "count": 852,
      "max": [
        163
      ],
      "min": [
        0
      ],
      "type": "SCALAR"
    },
    {
      "bufferView": 8,
      "componentType": 5126,
      "count": 256,
      "max": [
        5,
        5,
        36
      ],
      "min": [
        -5,
        -5,
        0
      ],
      "type": "VEC3"
    },
    {
      "bufferView": 9,
      "componentType": 5126,
      "count": 256,
      "max": [
        0.9987275004386902,
        0.9987275004386902,
        1
      ],
      "min": [
        -0.9987275004386902,
        -0.9987275004386902,
        -1
      ],
      "type": "VEC3"
    },
    {
      "bufferView": 10,
      "componentType": 5126,
      "count": 256,
      "max": [
        1,
        1
      ],
      "min": [
        0,
        0
      ],
      "type": "VEC2"
    },
    {
      "bufferView": 11,
      "componentType": 5125,
      "count": 756,
      "max": [
        255
      ],
      "min": [
        0
      ],
      "type": "SCALAR"
    },
    {
      "bufferView": 12,
      "componentType": 5126,
      "count": 256,
      "max": [
        5,
        5,
        36
      ],
      "min": [
        -5,
        -5,
        0
      ],
      "type": "VEC3"
    },
    {
      "bufferView": 13,
      "componentType": 5126,
      "count": 256,
      "max": [
        0.9987275004386902,
        0.9987275004386902,
        1
      ],
      "min": [
        -0.9987275004386902,
        -0.9987275004386902,
        -1
      ],
      "type": "VEC3"
    },
    {
      "bufferView": 14,
      "componentType": 5126,
      "count": 256,
      "max": [
        1,
        1
      ],
      "min": [
        0,
        0
      ],
      "type": "VEC2"
    },
    {
      "bufferView": 15,
      "componentType": 5125,
      "count": 756,
      "max": [
        255
      ],
      "min": [
        0
      ],
      "type": "SCALAR"
    },
    {
      "bufferView": 16,
      "componentType": 5126,
      "count": 256,
      "max": [
        5,
        5,
        240
      ],
      "min": [
        -5,
        -5,
        0
      ],
      "type": "VEC3"
    },
    {
      "bufferView": 17,
      "componentType": 5126,
      "count": 256,
      "max": [
        0.9987275004386902,
        0.9987275004386902,
        1
      ],
      "min": [
        -0.9987275004386902,
        -0.9987275004386902,
        -1
      ],
      "type": "VEC3"
    },
    {
      "bufferView": 18,
      "componentType": 5126,
      "count": 256,
      "max": [
        1,
        1
      ],
      "min": [
        0,
        0
      ],
      "type": "VEC2"
    },
    {
      "bufferView": 19,
      "componentType": 5125,
      "count": 756,
      "max": [
        255
      ],
      "min": [
        0
      ],
      "type": "SCALAR"
    },
    {
      "bufferView": 20,
      "componentType": 5126,
      "count": 192,
      "max": [
        5,
        5,
        240
      ],
      "min": [
        -5,
        -5,
        0
      ],
      "type": "VEC3"
    },
    {
      "bufferView": 21,
      "componentType": 5126,
      "count": 192,
      "max": [
        0.9977446794509888,
        0.9977446794509888,
        1
      ],
      "min": [
        -0.9977446794509888,
        -0.9977446794509888,
        -1
      ],
      "type": "VEC3"
    },
    {
      "bufferView": 22,
      "componentType": 5126,
      "count": 192,
      "max": [
        1,
        1
      ],
      "min": [
        0,
        0
      ],
      "type": "VEC2"
    },
    {
      "bufferView": 23,
      "componentType": 5125,
      "count": 564,
      "max": [
        191
      ],
      "min": [
        0
      ],
      "type": "SCALAR"
    },
    {
      "bufferView": 24,
      "componentType": 5126,
      "count": 24,
      "max": [
        156,
        40.5,
        6
      ],
      "min": [
        -156,
        -40.5,
        0
      ],
      "type": "VEC3"
    },
    {
      "bufferView": 25,
      "componentType": 5126,
      "count": 24,
      "max": [
        1,
        1,
        1
      ],
      "min": [
        -1,
        -1,
        -1
      ],
      "type": "VEC3"
    },
    {
      "bufferView": 26,
      "componentType": 5126,
      "count": 24,
      "max": [
        1,
        1
      ],
      "min": [
        0,
        0
      ],
      "type": "VEC2"
    },
    {
      "bufferView": 27,
      "componentType": 5125,
      "count": 36,
      "max": [
        23
      ],
      "min": [
        0
      ],
      "type": "SCALAR"
    },
    {
      "bufferView": 28,
      "componentType": 5126,
      "count": 24,
      "max": [
        156,
        40.5,
        6
      ],
      "min": [
        -156,
        -40.5,
        0
      ],
      "type": "VEC3"
    },
    {
      "bufferView": 29,
      "componentType": 5126,
      "count": 24,
      "max": [
        1,
        1,
        1
      ],
      "min": [
        -1,
        -1,
        -1
      ],
      "type": "VEC3"
    },
    {
      "bufferView": 30,
      "componentType": 5126,
      "count": 24,
      "max": [
        1,
        1
      ],
      "min": [
        0,
        0
      ],
      "type": "VEC2"
    },
    {
      "bufferView": 31,
      "componentType": 5125,
      "count": 36,
      "max": [
        23
      ],
      "min": [
        0
      ],
      "type": "SCALAR"
    },
    {
      "bufferView": 32,
      "componentType": 5126,
      "count": 24,
      "max": [
        156,
        39.85750198364258,
        5.78629207611084
      ],
      "min": [
        -156,
        -39.85750198364258,
        0
      ],
      "type": "VEC3"
    },
    {
      "bufferView": 33,
      "componentType": 5126,
      "count": 24,
      "max": [
        1,
        1,
        1
      ],
      "min": [
        -1,
        -1,
        -1
      ],
      "type": "VEC3"
    },
    {
      "bufferView": 34,
      "componentType": 5126,
      "count": 24,
      "max": [
        1,
        1
      ],
      "min": [
        0,
        0
      ],
      "type": "VEC2"
    },
    {
      "bufferView": 35,
      "componentType": 5125,
      "count": 36,
      "max": [
        23
      ],
      "min": [
        0
      ],
      "type": "SCALAR"
    },
    {
      "bufferView": 36,
      "componentType": 5126,
      "count": 24,
      "max": [
        156,
        40.5,
        6
      ],
      "min": [
        -156,
        -40.5,
        0
      ],
      "type": "VEC3"
    },
    {
      "bufferView": 37,
      "componentType": 5126,
      "count": 24,
      "max": [
        1,
        1,
        1
      ],
      "min": [
        -1,
        -1,
        -1
      ],
      "type": "VEC3"
    },
    {
      "bufferView": 38,
      "componentType": 5126,
      "count": 24,
      "max": [
        1,
        1
      ],
      "min": [
        0,
        0
      ],
      "type": "VEC2"
    },
    {
      "bufferView": 39,
      "componentType": 5125,
      "count": 36,
      "max": [
        23
      ],
      "min": [
        0
      ],
      "type": "SCALAR"
    }
  ],
  "meshes": [
    {
      "primitives": [
        {
          "mode": 4,
          "attributes": {
            "POSITION": 0,
            "NORMAL": 1,
            "TEXCOORD_0": 2
          },
          "extras": {
            "shape": {
              "points": [
                -5,
                0,
                -5,
                -2.761423749,
                -5,
                2.761423749,
                0,
                0,
                5,
                -2.761423749,
                5,
                2.761423749,
                5,
                0,
                5,
                0,
                5,
                2.761423749,
                5,
                -2.761423749,
                0,
                0,
                -5,
                2.761423749,
                -5,
                -2.761423749,
                -5,
                0
              ],
              "shapeHoles": [],
              "isClosed": true,
              "roundness": 0
            },
            "parameters": {
              "width": 10,
              "depth": 20,
              "spikes": 64,
              "angle": 360,
              "innerRadius": 0,
              "extrudeBevelSize": 64,
              "extrudeBevelSegments": 1,
              "height": 10,
              "type": "EllipseGeometry"
            },
            "type": "EllipseGeometry"
          },
          "indices": 3
        }
      ]
    },
    {
      "primitives": [
        {
          "mode": 4,
          "attributes": {
            "POSITION": 4,
            "NORMAL": 5,
            "TEXCOORD_0": 6
          },
          "extras": {
            "shape": {
              "points": [
                -5,
                0,
                -5,
                -2.761423749,
                -5,
                2.761423749,
                0,
                0,
                5,
                -2.761423749,
                5,
                2.761423749,
                5,
                0,
                5,
                0,
                5,
                2.761423749,
                5,
                -2.761423749,
                0,
                0,
                -5,
                2.761423749,
                -5,
                -2.761423749,
                -5,
                0
              ],
              "shapeHoles": [],
              "isClosed": true,
              "roundness": 0
            },
            "parameters": {
              "width": 10,
              "depth": 20,
              "spikes": 64,
              "angle": 360,
              "innerRadius": 0,
              "extrudeBevelSize": 64,
              "extrudeBevelSegments": 1,
              "height": 10,
              "type": "EllipseGeometry"
            },
            "type": "EllipseGeometry"
          },
          "indices": 7
        }
      ]
    },
    {
      "primitives": [
        {
          "mode": 4,
          "attributes": {
            "POSITION": 8,
            "NORMAL": 9,
            "TEXCOORD_0": 10
          },
          "extras": {
            "shape": {
              "points": [
                -5,
                0,
                -5,
                -2.761423749,
                -5,
                2.761423749,
                0,
                0,
                5,
                -2.761423749,
                5,
                2.761423749,
                5,
                0,
                5,
                0,
                5,
                2.761423749,
                5,
                -2.761423749,
                0,
                0,
                -5,
                2.761423749,
                -5,
                -2.761423749,
                -5,
                0
              ],
              "shapeHoles": [],
              "isClosed": true,
              "roundness": 0
            },
            "parameters": {
              "width": 10,
              "depth": 36,
              "spikes": 64,
              "angle": 360,
              "innerRadius": 0,
              "extrudeBevelSize": 0,
              "extrudeBevelSegments": 1,
              "height": 10,
              "type": "EllipseGeometry"
            },
            "type": "EllipseGeometry"
          },
          "indices": 11
        }
      ]
    },
    {
      "primitives": [
        {
          "mode": 4,
          "attributes": {
            "POSITION": 12,
            "NORMAL": 13,
            "TEXCOORD_0": 14
          },
          "extras": {
            "shape": {
              "points": [
                -5,
                0,
                -5,
                -2.761423749,
                -5,
                2.761423749,
                0,
                0,
                5,
                -2.761423749,
                5,
                2.761423749,
                5,
                0,
                5,
                0,
                5,
                2.761423749,
                5,
                -2.761423749,
                0,
                0,
                -5,
                2.761423749,
                -5,
                -2.761423749,
                -5,
                0
              ],
              "shapeHoles": [],
              "isClosed": true,
              "roundness": 0
            },
            "parameters": {
              "width": 10,
              "depth": 36,
              "spikes": 64,
              "angle": 360,
              "innerRadius": 0,
              "extrudeBevelSize": 0,
              "extrudeBevelSegments": 1,
              "height": 10,
              "type": "EllipseGeometry"
            },
            "type": "EllipseGeometry"
          },
          "indices": 15
        }
      ]
    },
    {
      "primitives": [
        {
          "mode": 4,
          "attributes": {
            "POSITION": 16,
            "NORMAL": 17,
            "TEXCOORD_0": 18
          },
          "extras": {
            "shape": {
              "points": [
                -5,
                0,
                -5,
                -2.761423749,
                -5,
                2.761423749,
                0,
                0,
                5,
                -2.761423749,
                5,
                2.761423749,
                5,
                0,
                5,
                0,
                5,
                2.761423749,
                5,
                -2.761423749,
                0,
                0,
                -5,
                2.761423749,
                -5,
                -2.761423749,
                -5,
                0
              ],
              "shapeHoles": [],
              "isClosed": true,
              "roundness": 0
            },
            "parameters": {
              "width": 10,
              "depth": 240,
              "spikes": 64,
              "angle": 360,
              "innerRadius": 0,
              "extrudeBevelSize": 0,
              "extrudeBevelSegments": 1,
              "height": 10,
              "type": "EllipseGeometry"
            },
            "type": "EllipseGeometry"
          },
          "indices": 19
        }
      ]
    },
    {
      "primitives": [
        {
          "mode": 4,
          "attributes": {
            "POSITION": 20,
            "NORMAL": 21,
            "TEXCOORD_0": 22
          },
          "extras": {
            "parameters": {
              "width": 10,
              "subdivisions": 12,
              "roundness": 0,
              "extrudeBevelSize": 0,
              "extrudeBevelSegments": 1,
              "windingRule": 0,
              "depth": 240,
              "spikes": 64,
              "angle": 360,
              "innerRadius": 0,
              "height": 10,
              "type": "VectorGeometry",
              "shape": {
                "isClosed": true,
                "points": [
                  {
                    "id": "e2c8b9a7-ed1a-4b35-974d-947ee3b3f3b9",
                    "fi": 0,
                    "data": {
                      "position": [
                        -5,
                        0
                      ],
                      "controlNext": {
                        "position": [
                          -5,
                          2.761423749
                        ]
                      },
                      "controlPrevious": {
                        "position": [
                          -5,
                          -2.761423749
                        ]
                      },
                      "areControlsDirectionsMirrored": true,
                      "roundness": 0
                    }
                  },
                  {
                    "id": "6d3dbb4a-d8fd-44a1-a8e4-db9f67df3e8d",
                    "fi": 1,
                    "data": {
                      "position": [
                        0,
                        5
                      ],
                      "controlNext": {
                        "position": [
                          2.761423749,
                          5
                        ]
                      },
                      "controlPrevious": {
                        "position": [
                          -2.761423749,
                          5
                        ]
                      },
                      "areControlsDirectionsMirrored": true,
                      "roundness": 0
                    }
                  },
                  {
                    "id": "f5438b75-0c91-4935-b101-e4f9f9ef2b30",
                    "fi": 2,
                    "data": {
                      "position": [
                        5,
                        0
                      ],
                      "controlNext": {
                        "position": [
                          5,
                          -2.761423749
                        ]
                      },
                      "controlPrevious": {
                        "position": [
                          5,
                          2.761423749
                        ]
                      },
                      "areControlsDirectionsMirrored": true,
                      "roundness": 0
                    }
                  },
                  {
                    "id": "a989f039-333b-4e1e-aa6d-e2d22b561eda",
                    "fi": 3,
                    "data": {
                      "position": [
                        0,
                        -5
                      ],
                      "controlNext": {
                        "position": [
                          -2.761423749,
                          -5
                        ]
                      },
                      "controlPrevious": {
                        "position": [
                          2.761423749,
                          -5
                        ]
                      },
                      "areControlsDirectionsMirrored": true,
                      "roundness": 0
                    }
                  }
                ],
                "roundness": 0,
                "shapeHoles": []
              }
            },
            "shape": {
              "points": [
                -5,
                0,
                -5,
                -2.761423749,
                -5,
                2.761423749,
                0,
                0,
                5,
                -2.761423749,
                5,
                2.761423749,
                5,
                0,
                5,
                0,
                5,
                2.761423749,
                5,
                -2.761423749,
                0,
                0,
                -5,
                2.761423749,
                -5,
                -2.761423749,
                -5,
                0
              ],
              "shapeHoles": [],
              "isClosed": true,
              "roundness": 0
            },
            "type": "VectorGeometry"
          },
          "indices": 23
        }
      ]
    },
    {
      "primitives": [
        {
          "mode": 4,
          "attributes": {
            "POSITION": 24,
            "NORMAL": 25,
            "TEXCOORD_0": 26
          },
          "extras": {
            "shape": {
              "points": [
                -156,
                40.5,
                -156,
                40.5,
                -156,
                40.5,
                0,
                156,
                40.5,
                156,
                40.5,
                156,
                40.5,
                0,
                156,
                -40.5,
                156,
                -40.5,
                156,
                -40.5,
                0,
                -156,
                -40.5,
                -156,
                -40.5,
                -156,
                -40.5,
                0
              ],
              "shapeHoles": [],
              "isClosed": true,
              "roundness": 0
            },
            "parameters": {
              "width": 312,
              "depth": 6,
              "cornerRadius": [
                0,
                0,
                0,
                0
              ],
              "cornerType": 1,
              "extrudeBevelSize": 0,
              "extrudeBevelSegments": 1,
              "height": 81,
              "type": "RectangleGeometry"
            },
            "ui": {
              "enabledIndieCorners": false
            },
            "type": "RectangleGeometry"
          },
          "indices": 27
        }
      ]
    },
    {
      "primitives": [
        {
          "mode": 4,
          "attributes": {
            "POSITION": 28,
            "NORMAL": 29,
            "TEXCOORD_0": 30
          },
          "extras": {
            "shape": {
              "points": [
                -156,
                40.5,
                -156,
                40.5,
                -156,
                40.5,
                0,
                156,
                40.5,
                156,
                40.5,
                156,
                40.5,
                0,
                156,
                -40.5,
                156,
                -40.5,
                156,
                -40.5,
                0,
                -156,
                -40.5,
                -156,
                -40.5,
                -156,
                -40.5,
                0
              ],
              "shapeHoles": [],
              "isClosed": true,
              "roundness": 0
            },
            "parameters": {
              "width": 312,
              "depth": 6,
              "cornerRadius": [
                0,
                0,
                0,
                0
              ],
              "cornerType": 1,
              "extrudeBevelSize": 0,
              "extrudeBevelSegments": 1,
              "height": 81,
              "type": "RectangleGeometry"
            },
            "ui": {
              "enabledIndieCorners": false
            },
            "type": "RectangleGeometry"
          },
          "indices": 31
        }
      ]
    },
    {
      "primitives": [
        {
          "mode": 4,
          "attributes": {
            "POSITION": 32,
            "NORMAL": 33,
            "TEXCOORD_0": 34
          },
          "extras": {
            "shape": {
              "points": [
                -156,
                39.85750345494307,
                -156,
                39.85750345494307,
                -156,
                39.85750345494307,
                0,
                156,
                39.85750345494307,
                156,
                39.85750345494307,
                156,
                39.85750345494307,
                0,
                156,
                -39.85750345494307,
                156,
                -39.85750345494307,
                156,
                -39.85750345494307,
                0,
                -156,
                -39.85750345494307,
                -156,
                -39.85750345494307,
                -156,
                -39.85750345494307,
                0
              ],
              "shapeHoles": [],
              "isClosed": true,
              "roundness": 0
            },
            "parameters": {
              "width": 312,
              "depth": 5.786292149821748,
              "cornerRadius": [
                0,
                0,
                0,
                0
              ],
              "cornerType": 1,
              "extrudeBevelSize": 0,
              "extrudeBevelSegments": 1,
              "height": 79.71500690988614,
              "type": "RectangleGeometry"
            },
            "ui": {
              "enabledIndieCorners": false
            },
            "type": "RectangleGeometry"
          },
          "indices": 35
        }
      ]
    },
    {
      "primitives": [
        {
          "mode": 4,
          "attributes": {
            "POSITION": 36,
            "NORMAL": 37,
            "TEXCOORD_0": 38
          },
          "extras": {
            "shape": {
              "points": [
                -156,
                40.5,
                -156,
                40.5,
                -156,
                40.5,
                0,
                156,
                40.5,
                156,
                40.5,
                156,
                40.5,
                0,
                156,
                -40.5,
                156,
                -40.5,
                156,
                -40.5,
                0,
                -156,
                -40.5,
                -156,
                -40.5,
                -156,
                -40.5,
                0
              ],
              "shapeHoles": [],
              "isClosed": true,
              "roundness": 0
            },
            "parameters": {
              "width": 312,
              "depth": 6,
              "cornerRadius": [
                0,
                0,
                0,
                0
              ],
              "cornerType": 1,
              "extrudeBevelSize": 0,
              "extrudeBevelSegments": 1,
              "height": 81,
              "type": "RectangleGeometry"
            },
            "ui": {
              "enabledIndieCorners": false
            },
            "type": "RectangleGeometry"
          },
          "indices": 39
        }
      ]
    }
  ],
  "extensions": {
    "KHR_lights_punctual": {
      "lights": [
        {
          "name": "Directional Light",
          "color": [
            1,
            1,
            1
          ],
          "intensity": 0.7,
          "type": "directional"
        }
      ]
    }
  },
  "cameras": [
    {
      "type": "orthographic",
      "orthographic": {
        "xmag": 9.6,
        "ymag": 5.3999999999999995,
        "zfar": 100000,
        "znear": 0
      }
    }
  ],
  "extensionsUsed": [
    "KHR_lights_punctual"
  ]
}